<svg id="svg" version="1.1" width="400" height="303.87596899224803" viewBox="0 0 400 303.87596899224803" xmlns="http://www.w3.org/2000/svg" xmlns:xlink="http://www.w3.org/1999/xlink" ><g id="svgg"><path id="path0" d="M198.431 66.963 C 197.985 67.133,197.475 67.592,197.297 67.983 C 197.119 68.373,196.765 68.693,196.511 68.693 C 196.257 68.693,196.049 68.826,196.049 68.989 C 196.049 69.375,193.387 72.036,193.001 72.036 C 192.838 72.036,192.705 72.245,192.705 72.499 C 192.705 72.753,192.375 73.112,191.971 73.296 C 191.567 73.480,191.167 73.897,191.082 74.224 C 190.996 74.550,190.656 74.888,190.324 74.975 C 189.993 75.061,189.651 75.403,189.564 75.735 C 189.478 76.066,189.136 76.408,188.804 76.494 C 188.473 76.581,188.131 76.923,188.045 77.254 C 187.958 77.586,187.616 77.928,187.285 78.014 C 186.953 78.101,186.611 78.443,186.525 78.774 C 186.438 79.105,186.096 79.447,185.765 79.534 C 185.434 79.621,185.092 79.963,185.005 80.294 C 184.918 80.625,184.576 80.967,184.245 81.054 C 183.914 81.140,183.572 81.482,183.485 81.814 C 183.399 82.145,183.061 82.486,182.734 82.571 C 182.408 82.656,181.990 83.057,181.806 83.460 C 181.623 83.864,181.264 84.195,181.010 84.195 C 180.755 84.195,180.547 84.328,180.547 84.490 C 180.547 84.855,177.895 87.538,177.535 87.538 C 177.392 87.538,177.200 87.822,177.110 88.168 C 177.019 88.515,176.674 88.870,176.342 88.956 C 176.011 89.043,175.669 89.385,175.583 89.716 C 175.496 90.048,175.154 90.390,174.823 90.476 C 174.491 90.563,174.149 90.905,174.063 91.236 C 173.976 91.567,173.634 91.909,173.303 91.996 C 172.972 92.083,172.630 92.425,172.543 92.756 C 172.456 93.087,172.114 93.429,171.783 93.516 C 171.452 93.602,171.110 93.944,171.023 94.276 C 170.937 94.607,170.595 94.949,170.263 95.035 C 169.932 95.122,169.590 95.464,169.504 95.795 C 169.417 96.127,169.075 96.469,168.744 96.555 C 168.412 96.642,168.070 96.984,167.984 97.315 C 167.897 97.646,167.543 97.992,167.196 98.082 C 166.849 98.173,166.565 98.363,166.565 98.505 C 166.565 98.842,162.368 103.040,162.031 103.040 C 161.889 103.040,161.699 103.323,161.608 103.670 C 161.517 104.017,161.176 104.370,160.848 104.456 C 160.167 104.634,159.893 105.817,159.871 108.663 C 159.863 109.818,159.643 110.932,159.271 111.702 C 158.921 112.426,158.676 113.594,158.665 114.590 C 158.631 117.655,158.114 121.799,157.656 122.685 C 157.369 123.241,157.085 125.270,156.881 128.233 C 156.651 131.556,156.428 133.049,156.110 133.401 C 155.788 133.756,155.571 135.262,155.340 138.731 C 155.097 142.378,154.899 143.697,154.536 144.099 C 154.164 144.510,153.993 145.761,153.790 149.555 C 153.583 153.410,153.418 154.597,153.030 155.025 C 152.649 155.447,152.480 156.578,152.294 159.945 C 152.120 163.105,151.909 164.597,151.532 165.326 C 151.150 166.065,150.965 167.412,150.841 170.350 L 150.673 174.364 174.877 198.580 C 188.189 211.899,199.169 222.796,199.277 222.796 C 199.386 222.796,199.791 222.454,200.179 222.036 C 200.566 221.619,201.158 221.277,201.495 221.277 C 201.831 221.277,202.245 221.017,202.415 220.701 C 202.584 220.384,203.136 219.981,203.641 219.805 C 204.146 219.629,204.559 219.336,204.559 219.154 C 204.559 218.972,205.155 218.568,205.883 218.256 C 206.611 217.944,207.291 217.470,207.393 217.203 C 207.496 216.936,207.853 216.717,208.186 216.717 C 208.520 216.717,208.937 216.449,209.113 216.120 C 209.289 215.792,209.966 215.363,210.618 215.168 C 211.325 214.956,211.864 214.583,211.953 214.245 C 212.034 213.933,212.363 213.678,212.683 213.678 C 213.003 213.678,213.565 213.332,213.933 212.909 C 214.300 212.486,214.997 212.061,215.480 211.965 C 215.991 211.863,216.423 211.548,216.510 211.214 C 216.595 210.887,216.928 210.638,217.280 210.638 C 217.620 210.638,218.088 210.367,218.320 210.036 C 218.552 209.705,219.236 209.228,219.840 208.976 C 220.445 208.723,221.049 208.341,221.184 208.127 C 221.318 207.913,221.771 207.567,222.188 207.358 C 223.003 206.951,224.799 205.727,225.510 205.096 C 225.748 204.885,226.302 204.506,226.741 204.255 C 228.730 203.117,229.617 202.535,230.327 201.900 C 230.748 201.524,231.253 201.216,231.450 201.216 C 231.648 201.216,232.119 200.885,232.499 200.482 C 232.878 200.078,233.545 199.658,233.982 199.548 C 234.418 199.439,234.960 199.085,235.186 198.763 C 235.412 198.440,235.795 198.176,236.037 198.176 C 236.280 198.176,236.770 197.841,237.126 197.431 C 237.482 197.022,238.166 196.600,238.646 196.495 C 239.126 196.389,239.659 196.041,239.831 195.720 C 240.003 195.399,240.323 195.137,240.543 195.137 C 240.763 195.137,241.373 194.726,241.897 194.225 C 242.422 193.723,243.050 193.313,243.293 193.313 C 243.536 193.313,243.913 193.059,244.132 192.749 C 244.350 192.438,244.871 192.077,245.289 191.945 C 245.707 191.814,246.220 191.463,246.430 191.165 C 246.639 190.867,247.289 190.466,247.873 190.273 C 248.458 190.080,248.936 189.789,248.936 189.627 C 248.936 189.464,249.415 189.131,250.000 188.886 C 250.585 188.642,251.064 188.302,251.064 188.131 C 251.064 187.960,251.679 187.557,252.432 187.234 C 253.184 186.912,253.799 186.515,253.799 186.353 C 253.799 186.192,254.093 185.966,254.452 185.852 C 254.811 185.738,255.541 185.229,256.075 184.722 L 257.045 183.798 237.643 164.405 C 219.617 146.387,218.261 144.960,218.521 144.278 C 218.799 143.546,245.397 116.754,246.681 115.914 C 247.826 115.163,247.404 114.708,222.882 90.242 C 200.019 67.431,199.213 66.664,198.431 66.963 " stroke="none" fill="#5bccb3" fill-rule="evenodd"></path><path id="path1" d="M0.000 151.976 L 0.000 303.951 200.000 303.951 L 400.000 303.951 400.000 151.976 L 400.000 0.000 200.000 0.000 L 0.000 0.000 0.000 151.976 M81.742 147.906 C 81.763 243.070,81.794 247.112,82.515 247.112 C 83.026 247.112,83.587 248.463,83.587 249.695 C 83.587 250.376,83.846 251.008,84.347 251.548 C 84.764 251.999,85.106 252.549,85.106 252.769 C 85.106 252.990,85.517 253.638,86.018 254.209 C 86.520 254.780,86.930 255.384,86.930 255.552 C 86.930 255.892,91.160 260.182,91.496 260.182 C 91.614 260.182,92.226 260.593,92.857 261.094 C 93.488 261.596,94.233 262.006,94.512 262.006 C 94.790 262.006,95.459 262.331,95.998 262.728 C 96.536 263.126,97.535 263.540,98.216 263.649 C 98.898 263.758,99.886 264.083,100.412 264.370 C 101.311 264.862,107.303 264.894,200.760 264.894 L 300.152 264.894 301.728 264.210 C 302.595 263.834,303.585 263.526,303.927 263.526 C 304.671 263.526,308.008 261.855,309.218 260.877 C 309.690 260.495,310.267 260.182,310.499 260.182 C 310.731 260.182,311.062 259.918,311.235 259.595 C 311.408 259.272,311.802 258.927,312.112 258.829 C 312.421 258.731,312.823 258.323,313.005 257.923 C 313.188 257.523,313.619 257.106,313.963 256.997 C 314.308 256.887,314.590 256.621,314.590 256.404 C 314.590 256.188,315.000 255.494,315.502 254.863 C 316.003 254.232,316.413 253.537,316.413 253.319 C 316.413 253.101,316.680 252.735,317.007 252.506 C 317.333 252.278,317.735 251.490,317.900 250.757 C 318.076 249.975,318.491 249.203,318.902 248.891 C 319.868 248.159,319.781 256.081,320.008 148.480 L 320.213 51.824 320.400 147.720 C 320.503 200.464,320.687 244.260,320.809 245.047 C 320.976 246.120,320.879 246.954,320.422 248.390 C 320.086 249.443,319.737 250.834,319.645 251.481 C 319.554 252.129,319.283 252.881,319.044 253.153 C 318.804 253.425,318.511 254.106,318.392 254.666 C 318.273 255.227,317.944 255.916,317.661 256.199 C 317.378 256.482,316.968 257.145,316.750 257.673 C 316.531 258.201,316.024 258.848,315.623 259.111 C 315.222 259.373,314.894 259.809,314.894 260.078 C 314.894 260.960,309.418 266.261,308.508 266.261 C 308.044 266.261,307.403 266.583,306.991 267.021 C 306.578 267.461,305.938 267.781,305.471 267.781 C 305.005 267.781,304.365 268.101,303.951 268.541 C 303.365 269.165,302.951 269.301,301.634 269.301 C 300.346 269.301,299.871 269.450,299.211 270.061 L 298.391 270.821 201.638 270.821 C 98.343 270.821,104.692 270.901,102.056 269.568 C 101.766 269.421,100.853 269.301,100.027 269.301 C 98.870 269.301,98.320 269.127,97.624 268.541 C 97.127 268.123,96.394 267.781,95.994 267.781 C 95.515 267.781,94.704 267.207,93.607 266.090 C 92.685 265.152,91.295 264.117,90.485 263.766 C 89.402 263.297,88.872 262.834,88.435 261.978 C 88.111 261.343,87.660 260.713,87.432 260.579 C 87.073 260.367,85.720 258.491,85.030 257.249 C 84.905 257.024,84.669 256.600,84.506 256.307 C 82.811 253.271,82.023 251.309,81.854 249.711 C 81.749 248.716,81.482 247.554,81.259 247.127 C 80.825 246.295,80.622 53.500,81.053 51.344 C 81.646 48.383,81.722 59.085,81.742 147.906 M223.843 89.226 C 248.070 113.446,248.334 113.724,248.383 114.968 C 248.413 115.725,248.285 116.276,248.063 116.350 C 247.113 116.667,220.365 143.813,220.365 144.460 C 220.366 144.950,225.664 150.436,239.513 164.286 C 250.044 174.818,258.661 183.571,258.661 183.739 C 258.664 184.338,256.293 186.626,255.669 186.626 C 255.321 186.626,254.895 186.890,254.722 187.213 C 254.549 187.536,254.100 187.898,253.724 188.017 C 253.347 188.136,252.868 188.477,252.659 188.774 C 252.449 189.072,251.799 189.473,251.215 189.666 C 250.630 189.859,250.152 190.145,250.152 190.302 C 250.152 190.459,249.673 190.816,249.088 191.095 C 248.503 191.374,248.024 191.718,248.024 191.860 C 248.024 192.003,247.409 192.383,246.657 192.705 C 245.904 193.028,245.289 193.417,245.289 193.569 C 245.289 193.722,244.878 194.017,244.377 194.225 C 243.875 194.433,243.465 194.731,243.465 194.887 C 243.465 195.043,242.864 195.437,242.130 195.762 C 241.396 196.086,240.716 196.557,240.620 196.808 C 240.523 197.059,240.242 197.264,239.995 197.264 C 239.747 197.264,239.166 197.616,238.702 198.045 C 238.239 198.475,237.484 198.901,237.024 198.993 C 236.564 199.085,236.107 199.418,236.007 199.732 C 235.907 200.047,235.640 200.304,235.413 200.304 C 235.187 200.304,234.599 200.642,234.108 201.055 C 233.617 201.469,232.888 201.948,232.489 202.120 C 232.090 202.293,231.147 202.914,230.395 203.501 C 229.643 204.088,228.614 204.760,228.109 204.994 C 227.604 205.229,226.934 205.706,226.618 206.054 C 226.303 206.402,225.883 206.687,225.684 206.687 C 225.485 206.687,225.086 206.948,224.797 207.267 C 224.508 207.586,223.838 208.024,223.306 208.240 C 222.775 208.455,222.162 208.878,221.943 209.179 C 221.725 209.480,221.370 209.726,221.154 209.726 C 220.939 209.726,220.527 209.988,220.238 210.307 C 219.949 210.626,219.278 211.063,218.747 211.279 C 218.216 211.495,217.602 211.918,217.384 212.219 C 217.166 212.520,216.809 212.766,216.592 212.766 C 216.376 212.766,215.841 213.097,215.404 213.502 C 214.967 213.907,214.327 214.328,213.982 214.438 C 213.637 214.547,213.023 214.968,212.618 215.373 C 212.213 215.778,211.745 216.109,211.578 216.109 C 211.411 216.109,210.932 216.451,210.514 216.869 C 210.096 217.287,209.481 217.629,209.147 217.629 C 208.814 217.629,208.431 217.825,208.297 218.065 C 207.954 218.678,206.136 219.973,204.787 220.565 C 204.160 220.840,203.647 221.177,203.647 221.315 C 203.647 221.452,203.203 221.795,202.660 222.075 C 202.116 222.356,201.535 222.770,201.368 222.996 C 200.913 223.610,199.344 223.967,198.477 223.654 C 198.061 223.504,186.744 212.410,173.328 199.001 C 146.020 171.707,148.232 174.293,149.357 170.973 C 149.583 170.304,149.856 168.245,149.962 166.397 C 150.069 164.549,150.365 162.292,150.622 161.382 C 150.878 160.471,151.275 157.743,151.504 155.319 C 151.733 152.894,152.128 150.364,152.381 149.695 C 152.635 149.027,152.977 146.548,153.142 144.187 C 153.332 141.452,153.610 139.565,153.908 138.990 C 154.211 138.404,154.476 136.544,154.663 133.699 C 154.845 130.936,155.135 128.873,155.447 128.127 C 155.752 127.397,156.049 125.341,156.222 122.770 C 156.390 120.270,156.695 118.139,156.982 117.451 C 157.271 116.760,157.575 114.617,157.747 112.058 C 158.071 107.237,158.933 104.103,160.081 103.573 C 160.443 103.406,160.809 103.002,160.894 102.676 C 160.979 102.350,161.320 102.012,161.651 101.925 C 161.983 101.838,162.325 101.496,162.411 101.165 C 162.498 100.834,162.840 100.492,163.171 100.405 C 163.503 100.319,163.844 99.977,163.931 99.645 C 164.018 99.314,164.360 98.972,164.691 98.886 C 165.022 98.799,165.364 98.457,165.451 98.126 C 165.537 97.794,165.875 97.453,166.202 97.368 C 166.528 97.283,166.946 96.883,167.130 96.479 C 167.314 96.075,167.672 95.745,167.927 95.745 C 168.181 95.745,168.389 95.613,168.389 95.451 C 168.389 95.068,172.576 90.881,172.959 90.881 C 173.120 90.881,173.252 90.673,173.252 90.419 C 173.252 90.165,173.583 89.806,173.986 89.622 C 174.390 89.438,174.790 89.021,174.876 88.694 C 174.961 88.368,175.302 88.030,175.633 87.943 C 175.965 87.857,176.306 87.515,176.393 87.183 C 176.480 86.852,176.822 86.510,177.153 86.424 C 177.484 86.337,177.826 85.995,177.913 85.664 C 178.000 85.332,178.341 84.990,178.673 84.904 C 179.004 84.817,179.346 84.475,179.433 84.144 C 179.519 83.813,179.861 83.471,180.193 83.384 C 180.524 83.297,180.866 82.955,180.952 82.624 C 181.039 82.293,181.377 81.952,181.703 81.867 C 182.030 81.781,182.447 81.381,182.631 80.977 C 182.815 80.574,183.174 80.243,183.428 80.243 C 183.682 80.243,183.891 80.112,183.891 79.951 C 183.891 79.591,189.589 73.860,189.946 73.860 C 190.087 73.860,190.277 73.576,190.368 73.230 C 190.458 72.883,190.803 72.528,191.135 72.442 C 191.466 72.355,191.808 72.013,191.895 71.682 C 191.981 71.351,192.323 71.009,192.655 70.922 C 192.986 70.835,193.328 70.493,193.414 70.162 C 193.501 69.831,193.843 69.489,194.174 69.402 C 194.506 69.316,194.848 68.974,194.934 68.642 C 195.021 68.311,195.363 67.969,195.694 67.882 C 196.025 67.796,196.364 67.465,196.448 67.147 C 196.531 66.829,196.851 66.475,197.160 66.362 C 197.468 66.248,198.022 65.837,198.390 65.448 C 198.758 65.060,199.125 64.742,199.206 64.742 C 199.287 64.742,210.374 75.760,223.843 89.226 " stroke="none" fill="#fbfbfb" fill-rule="evenodd"></path><path id="path2" d="M198.299 66.022 L 197.720 66.693 198.507 66.199 L 199.293 65.705 223.482 89.919 C 236.786 103.237,247.735 114.407,247.813 114.742 C 247.944 115.308,247.956 115.304,247.989 114.691 C 248.022 114.071,199.758 65.350,199.111 65.350 C 198.983 65.350,198.618 65.652,198.299 66.022 M193.161 70.913 C 191.657 72.450,190.700 73.503,191.034 73.252 C 192.215 72.366,196.387 68.047,196.010 68.101 C 195.948 68.110,194.666 69.375,193.161 70.913 M179.180 84.895 C 177.675 86.432,176.718 87.485,177.052 87.234 C 178.233 86.348,182.405 82.029,182.028 82.083 C 181.966 82.092,180.684 83.357,179.180 84.895 M162.919 101.157 C 160.997 103.112,159.698 104.506,160.032 104.255 C 160.740 103.723,165.611 98.880,166.223 98.100 C 167.108 96.972,166.288 97.730,162.919 101.157 M158.736 108.020 C 158.543 108.743,158.318 110.277,158.236 111.430 C 158.155 112.583,158.149 113.184,158.224 112.766 C 158.298 112.348,158.582 110.873,158.856 109.489 C 159.389 106.786,159.313 105.862,158.736 108.020 M157.834 115.805 C 157.834 116.558,157.893 116.866,157.965 116.489 C 158.038 116.113,158.038 115.498,157.965 115.122 C 157.893 114.745,157.834 115.053,157.834 115.805 M233.610 129.759 C 226.101 137.265,219.772 143.759,219.546 144.190 C 219.140 144.965,219.321 145.158,238.448 164.292 C 259.567 185.419,258.236 183.828,256.215 185.530 C 255.696 185.965,255.404 186.322,255.564 186.322 C 255.872 186.322,258.055 184.024,258.055 183.700 C 258.055 183.596,249.374 174.825,238.764 164.209 C 221.168 146.602,219.502 144.850,219.799 144.262 C 219.978 143.907,226.299 137.428,233.845 129.863 C 241.392 122.299,247.498 116.110,247.415 116.110 C 247.332 116.110,241.120 122.252,233.610 129.759 M157.181 119.061 C 156.963 119.999,156.736 121.531,156.676 122.466 C 156.617 123.400,156.629 123.822,156.703 123.404 C 156.778 122.986,157.063 121.512,157.336 120.127 C 157.900 117.268,157.784 116.470,157.181 119.061 M156.308 126.292 C 156.311 126.960,156.373 127.198,156.446 126.820 C 156.519 126.442,156.516 125.895,156.440 125.604 C 156.364 125.314,156.304 125.623,156.308 126.292 M155.698 129.547 C 155.346 131.069,154.863 134.876,155.187 133.587 C 155.812 131.092,156.286 128.584,156.188 128.291 C 156.124 128.097,155.903 128.663,155.698 129.547 M154.798 136.626 C 154.800 137.462,154.859 137.768,154.929 137.306 C 154.999 136.844,154.997 136.160,154.925 135.786 C 154.853 135.412,154.796 135.790,154.798 136.626 M154.407 139.382 C 154.407 139.811,154.284 140.392,154.134 140.673 C 153.984 140.955,153.780 142.006,153.681 143.009 L 153.502 144.833 153.943 143.009 C 154.548 140.509,154.833 138.602,154.601 138.602 C 154.494 138.602,154.407 138.953,154.407 139.382 M153.283 146.809 C 153.283 147.728,153.340 148.104,153.409 147.644 C 153.479 147.185,153.479 146.432,153.409 145.973 C 153.340 145.513,153.283 145.889,153.283 146.809 M152.888 149.833 C 152.888 150.159,152.682 151.214,152.432 152.177 C 152.181 153.139,151.987 154.275,152.001 154.699 C 152.015 155.124,152.215 154.650,152.446 153.647 C 153.046 151.034,153.304 149.240,153.081 149.240 C 152.975 149.240,152.888 149.507,152.888 149.833 M151.763 157.143 C 151.763 158.062,151.820 158.438,151.889 157.979 C 151.959 157.519,151.959 156.767,151.889 156.307 C 151.820 155.847,151.763 156.223,151.763 157.143 M151.413 160.334 C 151.385 160.836,151.158 161.918,150.909 162.738 C 150.660 163.559,150.467 164.585,150.480 165.018 C 150.494 165.451,150.768 164.780,151.090 163.526 C 151.412 162.272,151.628 160.836,151.570 160.334 L 151.465 159.422 151.413 160.334 M150.243 167.781 C 150.243 168.701,150.300 169.077,150.370 168.617 C 150.439 168.157,150.439 167.405,150.370 166.945 C 150.300 166.486,150.243 166.862,150.243 167.781 M149.718 172.058 C 149.602 173.084,149.569 173.986,149.645 174.063 C 149.722 174.139,149.881 173.364,150.000 172.340 C 150.119 171.317,150.151 170.415,150.072 170.336 C 149.993 170.257,149.834 171.032,149.718 172.058 M149.848 174.672 C 149.848 174.939,197.937 223.052,198.377 223.225 C 198.571 223.302,193.168 217.807,186.371 211.016 C 179.574 204.224,168.575 193.224,161.930 186.572 C 155.285 179.920,149.848 174.565,149.848 174.672 M251.824 188.450 C 251.193 188.951,250.824 189.362,251.004 189.362 C 251.184 189.362,251.423 189.214,251.535 189.033 C 251.647 188.852,252.168 188.443,252.693 188.122 C 253.218 187.802,253.495 187.540,253.309 187.539 C 253.123 187.539,252.455 187.948,251.824 188.450 M249.421 190.122 C 248.970 190.540,248.721 190.881,248.868 190.881 C 249.014 190.881,249.455 190.540,249.848 190.122 C 250.241 189.704,250.490 189.362,250.401 189.362 C 250.313 189.362,249.872 189.704,249.421 190.122 M247.020 191.651 C 245.902 192.634,246.302 192.626,247.472 191.641 C 247.969 191.223,248.262 190.886,248.124 190.891 C 247.985 190.896,247.489 191.238,247.020 191.651 M243.921 193.656 C 243.252 194.152,242.295 194.824,241.793 195.150 C 241.292 195.476,241.034 195.743,241.220 195.744 C 241.406 195.744,242.067 195.340,242.690 194.845 C 243.313 194.350,244.071 193.866,244.375 193.769 C 244.680 193.673,245.005 193.394,245.099 193.150 C 245.309 192.604,245.385 192.571,243.921 193.656 M237.417 198.050 C 236.849 198.454,236.534 198.784,236.716 198.784 C 236.899 198.784,237.432 198.447,237.901 198.034 C 238.975 197.089,238.760 197.096,237.417 198.050 M235.165 199.554 C 234.696 199.966,234.433 200.304,234.581 200.304 C 234.728 200.304,235.170 199.962,235.562 199.544 C 236.471 198.577,236.270 198.582,235.165 199.554 M232.827 201.064 C 232.260 201.482,231.953 201.824,232.143 201.824 C 232.487 201.824,234.347 200.332,234.026 200.314 C 233.933 200.308,233.393 200.646,232.827 201.064 M228.108 204.185 C 226.227 205.461,225.114 206.383,225.454 206.383 C 225.623 206.383,225.940 206.168,226.158 205.905 C 226.377 205.642,227.052 205.173,227.660 204.863 C 228.267 204.553,228.943 204.085,229.161 203.822 C 229.710 203.160,229.522 203.225,228.108 204.185 M223.100 207.591 C 222.181 208.255,220.941 209.066,220.344 209.392 C 219.748 209.719,219.065 210.222,218.826 210.509 C 218.587 210.797,219.143 210.528,220.062 209.912 C 220.981 209.295,222.127 208.557,222.610 208.271 C 223.573 207.700,225.166 206.408,224.924 206.393 C 224.840 206.388,224.020 206.927,223.100 207.591 M216.998 211.778 L 216.261 212.614 217.173 211.854 C 217.675 211.436,218.142 211.060,218.212 211.018 C 218.281 210.976,218.203 210.942,218.037 210.942 C 217.871 210.942,217.404 211.318,216.998 211.778 M214.820 213.146 C 214.426 213.522,214.316 213.678,214.575 213.492 C 214.834 213.307,215.319 213.003,215.653 212.818 C 215.988 212.632,216.098 212.476,215.898 212.471 C 215.699 212.466,215.213 212.770,214.820 213.146 M212.439 214.818 L 211.702 215.653 212.614 214.894 C 213.116 214.476,213.583 214.100,213.652 214.058 C 213.722 214.016,213.643 213.982,213.478 213.982 C 213.312 213.982,212.844 214.358,212.439 214.818 M209.878 216.413 C 209.247 216.915,208.879 217.325,209.059 217.325 C 209.239 217.325,209.478 217.177,209.590 216.997 C 209.701 216.816,210.222 216.406,210.747 216.086 C 211.273 215.766,211.550 215.503,211.364 215.503 C 211.178 215.502,210.510 215.912,209.878 216.413 M205.319 219.453 C 204.688 219.954,204.319 220.365,204.500 220.365 C 204.680 220.365,204.919 220.217,205.030 220.036 C 205.142 219.855,205.663 219.446,206.188 219.125 C 206.713 218.805,206.991 218.543,206.805 218.542 C 206.619 218.542,205.950 218.951,205.319 219.453 M202.947 221.134 C 202.478 221.547,202.214 221.884,202.362 221.884 C 202.509 221.884,202.951 221.543,203.343 221.125 C 204.252 220.158,204.051 220.163,202.947 221.134 M200.515 222.654 C 199.397 223.638,199.797 223.629,200.967 222.644 C 201.464 222.226,201.757 221.889,201.619 221.894 C 201.481 221.899,200.984 222.241,200.515 222.654 M93.313 262.918 C 93.313 263.085,93.518 263.222,93.769 263.222 C 94.020 263.222,94.225 263.085,94.225 262.918 C 94.225 262.751,94.020 262.614,93.769 262.614 C 93.518 262.614,93.313 262.751,93.313 262.918 M96.353 264.438 C 96.353 264.605,96.634 264.742,96.978 264.742 C 97.323 264.742,97.520 264.605,97.416 264.438 C 97.313 264.271,97.031 264.134,96.791 264.134 C 96.550 264.134,96.353 264.271,96.353 264.438 M304.116 264.417 C 304.020 264.572,304.066 264.777,304.219 264.871 C 304.607 265.111,306.383 264.724,306.383 264.400 C 306.383 264.043,304.338 264.058,304.116 264.417 M99.696 265.909 C 99.696 266.807,106.346 266.869,201.662 266.869 C 298.095 266.869,301.824 266.833,301.824 265.888 C 301.824 265.759,256.345 265.653,200.760 265.653 C 145.175 265.653,99.696 265.768,99.696 265.909 " stroke="none" fill="#c2d1ce" fill-rule="evenodd"></path><path id="path3" d="M81.053 51.344 C 80.622 53.500,80.825 246.295,81.259 247.127 C 81.482 247.554,81.749 248.716,81.854 249.711 C 82.023 251.309,82.811 253.271,84.506 256.307 C 84.669 256.600,84.905 257.024,85.030 257.249 C 85.720 258.491,87.073 260.367,87.432 260.579 C 87.660 260.713,88.111 261.343,88.435 261.978 C 88.872 262.834,89.402 263.297,90.485 263.766 C 91.295 264.117,92.685 265.152,93.607 266.090 C 94.704 267.207,95.515 267.781,95.994 267.781 C 96.394 267.781,97.127 268.123,97.624 268.541 C 98.320 269.127,98.870 269.301,100.027 269.301 C 100.853 269.301,101.766 269.421,102.056 269.568 C 104.692 270.901,98.343 270.821,201.638 270.821 L 298.391 270.821 299.211 270.061 C 299.871 269.450,300.346 269.301,301.634 269.301 C 302.951 269.301,303.365 269.165,303.951 268.541 C 304.365 268.101,305.005 267.781,305.471 267.781 C 305.938 267.781,306.578 267.461,306.991 267.021 C 307.403 266.583,308.044 266.261,308.508 266.261 C 309.418 266.261,314.894 260.960,314.894 260.078 C 314.894 259.809,315.222 259.373,315.623 259.111 C 316.024 258.848,316.531 258.201,316.750 257.673 C 316.968 257.145,317.378 256.482,317.661 256.199 C 317.944 255.916,318.273 255.227,318.392 254.666 C 318.511 254.106,318.804 253.425,319.044 253.153 C 319.283 252.881,319.554 252.129,319.645 251.481 C 319.737 250.834,320.086 249.443,320.422 248.390 C 320.879 246.954,320.976 246.120,320.809 245.047 C 320.687 244.260,320.503 200.464,320.400 147.720 L 320.213 51.824 320.008 148.480 C 319.781 256.081,319.868 248.159,318.902 248.891 C 318.491 249.203,318.076 249.975,317.900 250.757 C 317.735 251.490,317.333 252.278,317.007 252.506 C 316.680 252.735,316.413 253.101,316.413 253.319 C 316.413 253.537,316.003 254.232,315.502 254.863 C 315.000 255.494,314.590 256.188,314.590 256.404 C 314.590 256.621,314.308 256.887,313.963 256.997 C 313.619 257.106,313.188 257.523,313.005 257.923 C 312.823 258.323,312.421 258.731,312.112 258.829 C 311.802 258.927,311.408 259.272,311.235 259.595 C 311.062 259.918,310.731 260.182,310.499 260.182 C 310.267 260.182,309.690 260.495,309.218 260.877 C 308.008 261.855,304.671 263.526,303.927 263.526 C 303.585 263.526,302.595 263.834,301.728 264.210 L 300.152 264.894 200.760 264.894 C 107.303 264.894,101.311 264.862,100.412 264.370 C 99.886 264.083,98.898 263.758,98.216 263.649 C 97.535 263.540,96.536 263.126,95.998 262.728 C 95.459 262.331,94.790 262.006,94.512 262.006 C 94.233 262.006,93.488 261.596,92.857 261.094 C 92.226 260.593,91.614 260.182,91.496 260.182 C 91.160 260.182,86.930 255.892,86.930 255.552 C 86.930 255.384,86.520 254.780,86.018 254.209 C 85.517 253.638,85.106 252.990,85.106 252.769 C 85.106 252.549,84.764 251.999,84.347 251.548 C 83.846 251.008,83.587 250.376,83.587 249.695 C 83.587 248.463,83.026 247.112,82.515 247.112 C 81.794 247.112,81.763 243.070,81.742 147.906 C 81.722 59.085,81.646 48.383,81.053 51.344 M198.390 65.448 C 198.022 65.837,197.468 66.248,197.160 66.362 C 196.851 66.475,196.531 66.829,196.448 67.147 C 196.364 67.465,196.025 67.796,195.694 67.882 C 195.363 67.969,195.021 68.311,194.934 68.642 C 194.848 68.974,194.506 69.316,194.174 69.402 C 193.843 69.489,193.501 69.831,193.414 70.162 C 193.328 70.493,192.986 70.835,192.655 70.922 C 192.323 71.009,191.981 71.351,191.895 71.682 C 191.808 72.013,191.466 72.355,191.135 72.442 C 190.803 72.528,190.458 72.883,190.368 73.230 C 190.277 73.576,190.087 73.860,189.946 73.860 C 189.589 73.860,183.891 79.591,183.891 79.951 C 183.891 80.112,183.682 80.243,183.428 80.243 C 183.174 80.243,182.815 80.574,182.631 80.977 C 182.447 81.381,182.030 81.781,181.703 81.867 C 181.377 81.952,181.039 82.293,180.952 82.624 C 180.866 82.955,180.524 83.297,180.193 83.384 C 179.861 83.471,179.519 83.813,179.433 84.144 C 179.346 84.475,179.004 84.817,178.673 84.904 C 178.341 84.990,178.000 85.332,177.913 85.664 C 177.826 85.995,177.484 86.337,177.153 86.424 C 176.822 86.510,176.480 86.852,176.393 87.183 C 176.306 87.515,175.965 87.857,175.633 87.943 C 175.302 88.030,174.961 88.368,174.876 88.694 C 174.790 89.021,174.390 89.438,173.986 89.622 C 173.583 89.806,173.252 90.165,173.252 90.419 C 173.252 90.673,173.120 90.881,172.959 90.881 C 172.576 90.881,168.389 95.068,168.389 95.451 C 168.389 95.613,168.181 95.745,167.927 95.745 C 167.672 95.745,167.314 96.075,167.130 96.479 C 166.946 96.883,166.528 97.283,166.202 97.368 C 165.875 97.453,165.537 97.794,165.451 98.126 C 165.364 98.457,165.022 98.799,164.691 98.886 C 164.360 98.972,164.018 99.314,163.931 99.645 C 163.844 99.977,163.503 100.319,163.171 100.405 C 162.840 100.492,162.498 100.834,162.411 101.165 C 162.325 101.496,161.983 101.838,161.651 101.925 C 161.320 102.012,160.979 102.350,160.894 102.676 C 160.809 103.002,160.443 103.406,160.081 103.573 C 158.933 104.103,158.071 107.237,157.747 112.058 C 157.575 114.617,157.271 116.760,156.982 117.451 C 156.695 118.139,156.390 120.270,156.222 122.770 C 156.045 125.408,155.755 127.381,155.435 128.137 C 155.106 128.913,154.897 130.397,154.838 132.371 C 154.753 135.204,154.764 135.273,155.005 133.393 C 155.146 132.283,155.480 130.437,155.745 129.290 C 156.011 128.142,156.359 125.699,156.519 123.860 C 156.679 122.021,157.013 119.696,157.262 118.693 C 157.511 117.690,157.857 115.228,158.032 113.222 C 158.206 111.216,158.641 108.422,158.997 107.014 L 159.644 104.454 179.212 84.902 C 189.975 74.148,198.907 65.350,199.062 65.350 C 199.850 65.350,248.024 114.053,248.024 114.851 C 248.024 115.525,245.589 118.100,234.173 129.491 C 226.556 137.093,220.132 143.672,219.899 144.111 C 219.477 144.908,219.509 144.942,238.786 164.230 C 255.217 180.671,258.051 183.633,257.799 184.101 C 257.459 184.732,256.211 185.945,255.392 186.440 C 255.085 186.626,254.379 187.052,253.822 187.386 C 253.266 187.720,252.432 188.302,251.969 188.678 C 251.507 189.054,251.001 189.362,250.845 189.362 C 250.689 189.362,250.241 189.704,249.848 190.122 C 249.455 190.540,248.963 190.881,248.755 190.881 C 248.546 190.881,247.969 191.223,247.472 191.641 C 246.975 192.059,246.429 192.401,246.259 192.401 C 246.088 192.401,245.629 192.674,245.239 193.008 C 244.055 194.021,242.455 195.107,241.450 195.579 C 240.927 195.825,240.419 196.236,240.320 196.493 C 240.221 196.750,239.950 196.960,239.717 196.960 C 239.484 196.960,238.777 197.371,238.146 197.872 C 237.515 198.374,236.836 198.784,236.637 198.784 C 236.439 198.784,235.955 199.126,235.562 199.544 C 235.170 199.962,234.684 200.304,234.483 200.304 C 234.282 200.304,233.929 200.530,233.700 200.807 C 233.470 201.084,232.872 201.497,232.371 201.725 C 231.869 201.954,230.843 202.614,230.091 203.193 C 229.339 203.771,228.236 204.511,227.639 204.836 C 227.043 205.161,226.377 205.642,226.158 205.905 C 225.940 206.168,225.627 206.383,225.463 206.383 C 225.298 206.383,224.785 206.691,224.322 207.067 C 223.860 207.443,223.087 207.987,222.607 208.275 C 222.126 208.563,220.759 209.453,219.570 210.251 C 218.381 211.049,217.013 211.965,216.531 212.287 C 216.048 212.609,214.970 213.328,214.134 213.885 C 211.977 215.323,211.511 215.633,210.517 216.288 C 210.032 216.608,209.344 217.074,208.987 217.325 C 208.630 217.576,207.880 218.055,207.322 218.389 C 206.763 218.723,205.928 219.305,205.465 219.681 C 205.002 220.057,204.496 220.365,204.340 220.365 C 204.185 220.365,203.736 220.707,203.343 221.125 C 202.951 221.543,202.459 221.884,202.250 221.884 C 202.041 221.884,201.479 222.214,201.001 222.616 C 200.000 223.458,199.484 223.609,198.632 223.309 C 198.298 223.192,187.154 212.213,173.868 198.913 L 149.711 174.730 149.717 173.459 C 149.729 170.986,150.481 164.264,150.918 162.733 C 151.161 161.879,151.503 159.530,151.678 157.514 C 151.853 155.497,152.205 153.050,152.460 152.075 C 152.715 151.101,153.059 148.750,153.225 146.851 C 153.504 143.652,153.662 142.654,154.409 139.362 C 154.561 138.693,154.671 137.530,154.655 136.778 L 154.626 135.410 154.429 136.930 C 154.321 137.766,154.054 138.771,153.837 139.164 C 153.618 139.560,153.308 141.794,153.142 144.179 C 152.977 146.545,152.635 149.027,152.381 149.695 C 152.128 150.364,151.733 152.894,151.504 155.319 C 151.275 157.743,150.878 160.471,150.622 161.382 C 150.365 162.292,150.069 164.549,149.962 166.397 C 149.856 168.245,149.583 170.304,149.357 170.973 C 148.232 174.293,146.020 171.707,173.328 199.001 C 186.744 212.410,198.061 223.504,198.477 223.654 C 199.344 223.967,200.913 223.610,201.368 222.996 C 201.535 222.770,202.116 222.356,202.660 222.075 C 203.203 221.795,203.647 221.452,203.647 221.315 C 203.647 221.177,204.160 220.840,204.787 220.565 C 206.136 219.973,207.954 218.678,208.297 218.065 C 208.431 217.825,208.814 217.629,209.147 217.629 C 209.481 217.629,210.096 217.287,210.514 216.869 C 210.932 216.451,211.411 216.109,211.578 216.109 C 211.745 216.109,212.213 215.778,212.618 215.373 C 213.023 214.968,213.637 214.547,213.982 214.438 C 214.327 214.328,214.967 213.907,215.404 213.502 C 215.841 213.097,216.376 212.766,216.592 212.766 C 216.809 212.766,217.166 212.520,217.384 212.219 C 217.602 211.918,218.216 211.495,218.747 211.279 C 219.278 211.063,219.949 210.626,220.238 210.307 C 220.527 209.988,220.939 209.726,221.154 209.726 C 221.370 209.726,221.725 209.480,221.943 209.179 C 222.162 208.878,222.775 208.455,223.306 208.240 C 223.838 208.024,224.508 207.586,224.797 207.267 C 225.086 206.948,225.485 206.687,225.684 206.687 C 225.883 206.687,226.303 206.402,226.618 206.054 C 226.934 205.706,227.604 205.229,228.109 204.994 C 228.614 204.760,229.643 204.088,230.395 203.501 C 231.147 202.914,232.090 202.293,232.489 202.120 C 232.888 201.948,233.617 201.469,234.108 201.055 C 234.599 200.642,235.187 200.304,235.413 200.304 C 235.640 200.304,235.907 200.047,236.007 199.732 C 236.107 199.418,236.564 199.085,237.024 198.993 C 237.484 198.901,238.239 198.475,238.702 198.045 C 239.166 197.616,239.747 197.264,239.995 197.264 C 240.242 197.264,240.523 197.059,240.620 196.808 C 240.716 196.557,241.396 196.086,242.130 195.762 C 242.864 195.437,243.465 195.043,243.465 194.887 C 243.465 194.731,243.875 194.433,244.377 194.225 C 244.878 194.017,245.289 193.722,245.289 193.569 C 245.289 193.417,245.904 193.028,246.657 192.705 C 247.409 192.383,248.024 192.003,248.024 191.860 C 248.024 191.718,248.503 191.374,249.088 191.095 C 249.673 190.816,250.152 190.459,250.152 190.302 C 250.152 190.145,250.630 189.859,251.215 189.666 C 251.799 189.473,252.449 189.072,252.659 188.774 C 252.868 188.477,253.347 188.136,253.724 188.017 C 254.100 187.898,254.549 187.536,254.722 187.213 C 254.895 186.890,255.321 186.626,255.669 186.626 C 256.293 186.626,258.664 184.338,258.661 183.739 C 258.661 183.571,250.044 174.818,239.513 164.286 C 225.664 150.436,220.366 144.950,220.365 144.460 C 220.365 143.813,247.113 116.667,248.063 116.350 C 248.285 116.276,248.413 115.725,248.383 114.968 C 248.334 113.724,248.070 113.446,223.843 89.226 C 210.374 75.760,199.287 64.742,199.206 64.742 C 199.125 64.742,198.758 65.060,198.390 65.448 M94.225 262.918 C 94.225 263.085,94.020 263.222,93.769 263.222 C 93.518 263.222,93.313 263.085,93.313 262.918 C 93.313 262.751,93.518 262.614,93.769 262.614 C 94.020 262.614,94.225 262.751,94.225 262.918 M97.416 264.438 C 97.520 264.605,97.323 264.742,96.978 264.742 C 96.634 264.742,96.353 264.605,96.353 264.438 C 96.353 264.271,96.550 264.134,96.791 264.134 C 97.031 264.134,97.313 264.271,97.416 264.438 M306.383 264.400 C 306.383 264.724,304.607 265.111,304.219 264.871 C 304.066 264.777,304.020 264.572,304.116 264.417 C 304.338 264.058,306.383 264.043,306.383 264.400 M301.824 265.888 C 301.824 266.833,298.095 266.869,201.662 266.869 C 106.346 266.869,99.696 266.807,99.696 265.909 C 99.696 265.768,145.175 265.653,200.760 265.653 C 256.345 265.653,301.824 265.759,301.824 265.888 " stroke="none" fill="#dcdcdc" fill-rule="evenodd"></path><path id="path4" d="M198.464 66.217 C 195.618 68.053,159.632 104.845,159.437 106.118 C 159.326 106.849,159.037 108.404,158.797 109.574 C 158.556 110.745,158.228 113.138,158.069 114.894 C 157.909 116.649,157.576 118.974,157.328 120.061 C 157.081 121.147,156.721 123.678,156.529 125.684 C 156.337 127.690,155.984 130.084,155.745 131.003 C 155.505 131.922,155.168 134.316,154.996 136.322 C 154.823 138.328,154.484 140.722,154.242 141.641 C 154.001 142.561,153.655 144.954,153.475 146.960 C 153.294 148.967,152.950 151.382,152.712 152.328 C 152.473 153.274,152.079 156.017,151.837 158.424 C 151.596 160.831,151.250 163.188,151.070 163.662 C 150.809 164.347,149.867 172.422,149.852 174.101 C 149.847 174.644,198.657 223.404,199.206 223.404 C 199.450 223.404,200.036 223.091,200.509 222.709 C 200.981 222.326,201.710 221.847,202.128 221.645 C 202.546 221.443,203.503 220.796,204.255 220.209 C 205.008 219.621,206.033 218.934,206.535 218.682 C 207.036 218.430,208.062 217.746,208.815 217.162 C 209.567 216.578,210.595 215.909,211.100 215.674 C 211.605 215.440,212.276 214.963,212.591 214.615 C 212.906 214.267,213.294 213.982,213.453 213.982 C 213.612 213.982,214.148 213.640,214.645 213.222 C 215.142 212.804,215.719 212.462,215.928 212.462 C 216.137 212.462,216.629 212.120,217.021 211.702 C 217.414 211.284,217.872 210.942,218.038 210.942 C 218.205 210.942,218.601 210.707,218.918 210.421 C 219.235 210.134,219.952 209.621,220.513 209.281 C 221.073 208.941,222.329 208.129,223.304 207.476 C 224.278 206.824,225.350 206.107,225.684 205.883 C 226.018 205.659,227.044 204.975,227.964 204.363 C 228.883 203.751,229.909 203.065,230.243 202.840 C 230.578 202.614,231.672 201.889,232.675 201.229 C 233.678 200.569,234.909 199.742,235.410 199.390 C 235.912 199.039,237.074 198.286,237.994 197.717 C 238.913 197.148,239.863 196.506,240.104 196.290 C 240.345 196.073,240.984 195.623,241.523 195.289 C 242.062 194.954,243.233 194.192,244.124 193.594 C 245.015 192.996,246.138 192.244,246.620 191.922 C 247.101 191.601,247.863 191.132,248.314 190.881 C 248.764 190.631,249.328 190.246,249.566 190.028 C 249.985 189.643,250.990 188.966,253.036 187.690 C 255.783 185.976,257.017 184.988,257.479 184.130 C 257.710 183.702,254.356 180.206,238.449 164.293 L 219.138 144.975 219.642 143.992 C 219.919 143.452,220.279 142.923,220.443 142.817 C 222.271 141.636,247.911 115.349,247.800 114.769 C 247.722 114.360,237.843 104.268,223.454 89.898 L 199.240 65.717 198.464 66.217 M246.940 114.651 C 247.320 115.402,247.298 115.509,246.681 115.914 C 245.397 116.754,218.799 143.546,218.521 144.278 C 218.261 144.960,219.617 146.387,237.643 164.405 L 257.045 183.798 256.075 184.722 C 255.541 185.229,254.811 185.738,254.452 185.852 C 254.093 185.966,253.799 186.192,253.799 186.353 C 253.799 186.515,253.184 186.912,252.432 187.234 C 251.679 187.557,251.064 187.960,251.064 188.131 C 251.064 188.302,250.585 188.642,250.000 188.886 C 249.415 189.131,248.936 189.464,248.936 189.627 C 248.936 189.789,248.458 190.080,247.873 190.273 C 247.289 190.466,246.639 190.867,246.430 191.165 C 246.220 191.463,245.707 191.814,245.289 191.945 C 244.871 192.077,244.350 192.438,244.132 192.749 C 243.913 193.059,243.536 193.313,243.293 193.313 C 243.050 193.313,242.422 193.723,241.897 194.225 C 241.373 194.726,240.763 195.137,240.543 195.137 C 240.323 195.137,240.003 195.399,239.831 195.720 C 239.659 196.041,239.126 196.389,238.646 196.495 C 238.166 196.600,237.482 197.022,237.126 197.431 C 236.770 197.841,236.280 198.176,236.037 198.176 C 235.795 198.176,235.412 198.440,235.186 198.763 C 234.960 199.085,234.418 199.439,233.982 199.548 C 233.545 199.658,232.878 200.078,232.499 200.482 C 232.119 200.885,231.648 201.216,231.450 201.216 C 231.253 201.216,230.748 201.524,230.327 201.900 C 229.617 202.535,228.730 203.117,226.741 204.255 C 226.302 204.506,225.748 204.885,225.510 205.096 C 224.799 205.727,223.003 206.951,222.188 207.358 C 221.771 207.567,221.318 207.913,221.184 208.127 C 221.049 208.341,220.445 208.723,219.840 208.976 C 219.236 209.228,218.552 209.705,218.320 210.036 C 218.088 210.367,217.620 210.638,217.280 210.638 C 216.928 210.638,216.595 210.887,216.510 211.214 C 216.423 211.548,215.991 211.863,215.480 211.965 C 214.997 212.061,214.300 212.486,213.933 212.909 C 213.565 213.332,213.003 213.678,212.683 213.678 C 212.363 213.678,212.034 213.933,211.953 214.245 C 211.864 214.583,211.325 214.956,210.618 215.168 C 209.966 215.363,209.289 215.792,209.113 216.120 C 208.937 216.449,208.520 216.717,208.186 216.717 C 207.853 216.717,207.496 216.936,207.393 217.203 C 207.291 217.470,206.611 217.944,205.883 218.256 C 205.155 218.568,204.559 218.972,204.559 219.154 C 204.559 219.336,204.146 219.629,203.641 219.805 C 203.136 219.981,202.584 220.384,202.415 220.701 C 202.245 221.017,201.831 221.277,201.495 221.277 C 201.158 221.277,200.566 221.619,200.179 222.036 C 199.791 222.454,199.386 222.796,199.277 222.796 C 199.169 222.796,188.189 211.899,174.877 198.580 L 150.673 174.364 150.841 170.350 C 150.965 167.412,151.150 166.065,151.532 165.326 C 151.909 164.597,152.120 163.105,152.294 159.945 C 152.480 156.578,152.649 155.447,153.030 155.025 C 153.418 154.597,153.583 153.410,153.790 149.555 C 153.993 145.761,154.164 144.510,154.536 144.099 C 154.899 143.697,155.097 142.378,155.340 138.731 C 155.571 135.262,155.788 133.756,156.110 133.401 C 156.428 133.049,156.651 131.556,156.881 128.233 C 157.085 125.270,157.369 123.241,157.656 122.685 C 158.114 121.799,158.631 117.655,158.665 114.590 C 158.676 113.594,158.921 112.426,159.271 111.702 C 159.643 110.932,159.863 109.818,159.871 108.663 C 159.893 105.817,160.167 104.634,160.848 104.456 C 161.176 104.370,161.517 104.017,161.608 103.670 C 161.699 103.323,161.889 103.040,162.031 103.040 C 162.368 103.040,166.565 98.842,166.565 98.505 C 166.565 98.363,166.849 98.173,167.196 98.082 C 167.543 97.992,167.897 97.646,167.984 97.315 C 168.070 96.984,168.412 96.642,168.744 96.555 C 169.075 96.469,169.417 96.127,169.504 95.795 C 169.590 95.464,169.932 95.122,170.263 95.035 C 170.595 94.949,170.937 94.607,171.023 94.276 C 171.110 93.944,171.452 93.602,171.783 93.516 C 172.114 93.429,172.456 93.087,172.543 92.756 C 172.630 92.425,172.972 92.083,173.303 91.996 C 173.634 91.909,173.976 91.567,174.063 91.236 C 174.149 90.905,174.491 90.563,174.823 90.476 C 175.154 90.390,175.496 90.048,175.583 89.716 C 175.669 89.385,176.011 89.043,176.342 88.956 C 176.674 88.870,177.019 88.515,177.110 88.168 C 177.200 87.822,177.392 87.538,177.535 87.538 C 177.895 87.538,180.547 84.855,180.547 84.490 C 180.547 84.328,180.755 84.195,181.010 84.195 C 181.264 84.195,181.623 83.864,181.806 83.460 C 181.990 83.057,182.408 82.656,182.734 82.571 C 183.061 82.486,183.399 82.145,183.485 81.814 C 183.572 81.482,183.914 81.140,184.245 81.054 C 184.576 80.967,184.918 80.625,185.005 80.294 C 185.092 79.963,185.434 79.621,185.765 79.534 C 186.096 79.447,186.438 79.105,186.525 78.774 C 186.611 78.443,186.953 78.101,187.285 78.014 C 187.616 77.928,187.958 77.586,188.045 77.254 C 188.131 76.923,188.473 76.581,188.804 76.494 C 189.136 76.408,189.478 76.066,189.564 75.735 C 189.651 75.403,189.993 75.061,190.324 74.975 C 190.656 74.888,190.996 74.550,191.082 74.224 C 191.167 73.897,191.567 73.480,191.971 73.296 C 192.375 73.112,192.705 72.753,192.705 72.499 C 192.705 72.245,192.838 72.036,193.001 72.036 C 193.387 72.036,196.049 69.375,196.049 68.989 C 196.049 68.826,196.257 68.693,196.511 68.693 C 196.765 68.693,197.119 68.373,197.297 67.983 C 198.377 65.612,196.959 64.378,222.882 90.242 C 235.885 103.215,246.711 114.199,246.940 114.651 " stroke="none" fill="#8cdccc" fill-rule="evenodd"></path></g></svg>