<svg id="svg" version="1.1" width="400" height="400" viewBox="0 0 400 400" xmlns="http://www.w3.org/2000/svg" xmlns:xlink="http://www.w3.org/1999/xlink" ><g id="svgg"><path id="path0" d="M195.893 2.436 C 195.505 2.662,173.425 24.610,146.828 51.208 C 91.682 106.357,97.119 100.116,96.370 109.126 C 96.138 111.917,95.612 115.640,95.200 117.400 C 94.788 119.160,94.334 122.310,94.191 124.400 C 94.048 126.490,93.586 129.700,93.165 131.534 C 92.743 133.368,92.306 136.464,92.193 138.414 C 91.984 142.007,91.493 145.218,90.818 147.400 C 90.614 148.060,90.248 150.893,90.006 153.696 C 89.763 156.498,89.301 159.648,88.979 160.696 C 88.657 161.743,88.208 164.940,87.980 167.800 C 87.753 170.660,87.312 173.901,87.000 175.003 C 86.689 176.104,86.161 179.724,85.828 183.047 C 85.495 186.370,85.025 189.609,84.784 190.243 C 84.542 190.878,84.166 193.558,83.947 196.199 C 83.729 198.839,83.205 202.530,82.783 204.400 C 82.361 206.270,81.836 209.966,81.615 212.612 C 81.395 215.259,80.939 218.319,80.603 219.412 C 80.266 220.506,79.819 223.560,79.609 226.200 C 79.206 231.267,78.885 233.411,78.380 234.405 C 78.211 234.738,77.854 237.528,77.586 240.605 C 77.318 243.682,76.851 247.010,76.548 248.000 C 76.246 248.990,75.807 252.050,75.573 254.800 C 75.340 257.550,74.780 261.330,74.330 263.200 C 73.792 265.430,73.492 268.114,73.455 271.000 L 73.400 275.400 135.144 337.122 C 190.691 392.649,196.954 398.786,197.544 398.269 C 197.905 397.953,198.605 397.571,199.100 397.420 C 199.595 397.270,200.000 396.994,200.000 396.807 C 200.000 396.503,202.802 394.595,205.080 393.349 C 205.564 393.085,206.371 392.486,206.872 392.018 C 207.374 391.551,208.193 391.066,208.692 390.941 C 209.191 390.816,209.600 390.556,209.600 390.365 C 209.600 390.173,210.275 389.645,211.100 389.192 C 211.925 388.739,213.230 387.922,214.000 387.378 C 215.532 386.294,216.073 385.925,217.650 384.890 C 218.227 384.510,219.217 383.854,219.850 383.430 C 220.482 383.007,221.900 382.068,223.000 381.343 C 224.100 380.618,225.450 379.663,226.000 379.221 C 226.550 378.779,227.197 378.414,227.438 378.409 C 227.679 378.404,228.202 378.040,228.600 377.600 C 228.998 377.160,229.559 376.800,229.846 376.800 C 230.134 376.800,230.691 376.466,231.084 376.059 C 231.478 375.651,232.970 374.576,234.400 373.669 C 235.830 372.763,237.450 371.655,238.000 371.206 C 238.550 370.757,239.405 370.283,239.900 370.152 C 240.395 370.020,240.800 369.756,240.800 369.565 C 240.800 369.373,241.475 368.845,242.300 368.392 C 243.125 367.939,244.430 367.122,245.200 366.578 C 245.970 366.033,246.870 365.413,247.200 365.200 C 247.530 364.987,248.430 364.367,249.200 363.822 C 249.970 363.278,251.242 362.478,252.027 362.045 C 252.811 361.613,253.689 360.975,253.976 360.629 C 254.263 360.283,254.713 360.000,254.977 360.000 C 255.240 360.000,256.061 359.460,256.800 358.800 C 257.539 358.140,258.354 357.600,258.610 357.600 C 258.866 357.600,259.402 357.240,259.800 356.800 C 260.198 356.360,260.757 356.000,261.041 356.000 C 261.326 356.000,262.023 355.570,262.589 355.045 C 263.156 354.519,264.617 353.484,265.835 352.745 C 267.054 352.005,268.694 350.905,269.480 350.300 C 270.267 349.695,271.155 349.200,271.455 349.200 C 271.755 349.200,272.000 349.024,272.000 348.808 C 272.000 348.593,272.675 348.045,273.500 347.592 C 274.325 347.139,275.630 346.322,276.400 345.778 C 277.170 345.233,278.070 344.613,278.400 344.400 C 278.730 344.187,279.630 343.567,280.400 343.022 C 281.170 342.478,282.442 341.678,283.227 341.245 C 284.011 340.813,284.889 340.175,285.176 339.829 C 285.463 339.483,285.913 339.200,286.177 339.200 C 286.440 339.200,287.261 338.660,288.000 338.000 C 288.739 337.340,289.554 336.800,289.810 336.800 C 290.066 336.800,290.602 336.440,291.000 336.000 C 291.398 335.560,291.957 335.200,292.241 335.200 C 292.526 335.200,293.223 334.770,293.789 334.245 C 294.356 333.719,295.817 332.684,297.035 331.945 C 298.254 331.205,299.894 330.105,300.680 329.500 C 301.467 328.895,302.355 328.400,302.655 328.400 C 302.955 328.400,303.200 328.224,303.200 328.008 C 303.200 327.793,303.875 327.245,304.700 326.792 C 305.525 326.339,306.830 325.522,307.600 324.978 C 308.370 324.433,309.270 323.813,309.600 323.600 C 309.930 323.387,310.830 322.767,311.600 322.222 C 312.370 321.678,313.642 320.878,314.427 320.445 C 315.211 320.013,316.089 319.375,316.376 319.029 C 316.663 318.683,317.113 318.400,317.377 318.400 C 317.640 318.400,318.461 317.860,319.200 317.200 C 319.939 316.540,320.754 316.000,321.010 316.000 C 321.266 316.000,321.802 315.640,322.200 315.200 C 322.598 314.760,323.121 314.400,323.362 314.399 C 323.603 314.399,324.430 313.854,325.200 313.189 C 325.970 312.524,327.005 311.875,327.500 311.747 C 327.995 311.618,328.400 311.356,328.400 311.165 C 328.400 310.973,329.075 310.446,329.900 309.994 C 330.725 309.541,332.120 308.634,333.000 307.978 C 333.880 307.321,335.230 306.421,336.000 305.976 C 337.385 305.177,339.791 303.554,340.638 302.849 C 340.878 302.649,341.651 302.187,342.355 301.823 C 345.774 300.055,349.671 304.353,295.798 250.476 C 268.806 223.481,247.075 201.440,246.946 200.926 C 246.818 200.417,246.818 199.584,246.945 199.076 C 247.073 198.567,263.460 181.866,283.389 161.934 C 304.539 140.780,319.600 125.417,319.600 124.997 C 319.600 124.275,197.654 1.988,196.958 2.012 C 196.761 2.019,196.282 2.209,195.893 2.436 " stroke="none" fill="#04d4b4" fill-rule="evenodd"></path><path id="path1" d="M0.000 200.000 L 0.000 400.000 96.829 400.000 C 183.947 400.000,193.646 399.938,193.529 399.382 C 193.458 399.042,165.698 371.061,131.839 337.203 L 70.278 275.642 70.515 272.290 C 70.645 270.446,71.023 268.232,71.355 267.369 C 71.687 266.506,72.149 263.254,72.382 260.143 C 72.615 257.031,73.082 253.702,73.420 252.744 C 73.758 251.786,74.211 248.662,74.427 245.801 C 74.643 242.941,75.159 239.340,75.572 237.800 C 75.985 236.260,76.428 233.110,76.555 230.800 C 76.682 228.490,77.070 225.610,77.416 224.400 C 77.762 223.190,78.227 220.040,78.448 217.400 C 78.670 214.760,79.125 211.520,79.459 210.200 C 79.792 208.880,80.310 205.223,80.609 202.073 C 80.909 198.923,81.431 195.503,81.770 194.473 C 82.109 193.443,82.570 190.146,82.794 187.146 C 83.019 184.147,83.480 180.907,83.819 179.946 C 84.158 178.986,84.614 175.837,84.832 172.949 C 85.050 170.061,85.582 166.462,86.014 164.950 C 86.446 163.439,86.806 161.212,86.812 160.001 C 86.829 157.070,87.455 152.380,88.168 149.850 C 88.486 148.723,88.932 145.434,89.160 142.541 C 89.387 139.649,89.833 136.589,90.150 135.741 C 90.467 134.894,90.917 131.750,91.150 128.755 C 91.382 125.760,91.844 122.510,92.175 121.534 C 92.507 120.557,92.964 117.313,93.191 114.325 C 93.417 111.337,93.868 108.140,94.193 107.220 C 94.518 106.300,94.902 104.344,95.046 102.874 C 95.191 101.403,95.546 99.750,95.835 99.200 C 96.124 98.650,118.240 76.337,144.981 49.616 C 171.721 22.895,193.600 0.800,193.600 0.516 C 193.600 0.096,175.586 0.000,96.800 0.000 L 0.000 0.000 0.000 200.000 M199.604 0.500 C 199.606 0.775,200.603 1.990,201.820 3.200 C 203.037 4.410,204.701 6.101,205.517 6.958 C 206.837 8.344,208.968 10.465,213.885 15.285 C 215.745 17.108,232.642 34.018,234.707 36.122 C 235.528 36.959,237.910 39.334,240.000 41.400 C 242.090 43.466,243.980 45.341,244.200 45.567 C 244.420 45.793,246.727 48.097,249.326 50.689 C 251.925 53.280,254.715 56.101,255.526 56.958 C 256.837 58.343,258.889 60.387,263.885 65.285 C 265.458 66.827,282.167 83.540,284.595 86.000 C 285.355 86.770,287.216 88.660,288.731 90.200 C 290.246 91.740,292.186 93.663,293.042 94.474 C 293.899 95.285,296.720 98.075,299.311 100.674 C 301.903 103.273,304.207 105.580,304.433 105.800 C 304.659 106.020,306.532 107.910,308.597 110.000 C 310.661 112.090,313.036 114.464,313.875 115.275 C 324.344 125.399,324.343 124.543,313.885 134.725 C 309.999 138.509,306.873 141.619,305.526 143.042 C 304.715 143.899,301.925 146.720,299.326 149.311 C 296.727 151.903,294.420 154.207,294.200 154.433 C 293.980 154.659,292.090 156.534,290.000 158.600 C 287.910 160.666,285.528 163.041,284.707 163.878 C 282.642 165.982,265.745 182.892,263.885 184.715 C 258.839 189.662,256.837 191.658,255.532 193.042 C 254.725 193.899,252.970 195.658,251.632 196.950 C 248.624 199.857,248.624 200.143,251.632 203.050 C 252.970 204.342,254.725 206.101,255.532 206.958 C 256.339 207.814,258.260 209.754,259.800 211.269 C 264.562 215.953,265.149 216.536,274.315 225.693 C 279.218 230.592,283.898 235.286,284.715 236.125 C 285.532 236.964,287.910 239.339,290.000 241.403 C 292.090 243.468,293.980 245.341,294.200 245.567 C 294.420 245.793,296.727 248.097,299.326 250.689 C 301.925 253.280,304.715 256.101,305.526 256.958 C 306.337 257.814,308.260 259.754,309.800 261.269 C 311.340 262.784,313.230 264.645,314.000 265.405 C 316.460 267.833,333.173 284.542,334.715 286.115 C 339.429 290.923,341.654 293.163,343.042 294.494 C 346.737 298.038,346.800 298.129,346.800 299.899 C 346.800 301.408,346.639 301.697,345.300 302.591 C 344.475 303.141,343.440 303.834,343.000 304.131 C 342.560 304.428,341.678 305.015,341.040 305.435 C 340.403 305.856,339.496 306.470,339.026 306.800 C 338.556 307.130,337.576 307.760,336.848 308.200 C 336.119 308.640,334.886 309.495,334.107 310.100 C 333.328 310.705,332.464 311.200,332.188 311.200 C 331.912 311.200,331.589 311.451,331.471 311.758 C 331.353 312.066,330.524 312.640,329.628 313.035 C 328.733 313.431,328.000 313.909,328.000 314.097 C 328.000 314.286,327.370 314.704,326.600 315.026 C 325.830 315.348,325.200 315.772,325.200 315.970 C 325.200 316.167,324.390 316.721,323.400 317.200 C 322.410 317.679,321.600 318.233,321.600 318.430 C 321.600 318.628,321.015 319.063,320.300 319.398 C 318.937 320.036,316.845 321.450,315.266 322.801 C 314.752 323.240,314.148 323.600,313.924 323.600 C 313.699 323.600,313.017 324.005,312.408 324.500 C 311.415 325.307,310.434 325.945,307.819 327.482 C 307.369 327.747,306.640 328.249,306.200 328.597 C 304.815 329.694,302.638 331.163,301.615 331.691 C 301.073 331.971,300.192 332.605,299.657 333.100 C 299.121 333.595,298.438 334.000,298.139 334.000 C 297.840 334.000,297.203 334.450,296.725 335.000 C 296.247 335.550,295.643 336.000,295.383 336.000 C 295.123 336.000,294.231 336.540,293.400 337.200 C 292.569 337.860,291.639 338.400,291.332 338.400 C 291.026 338.400,290.669 338.677,290.539 339.015 C 290.409 339.353,289.740 339.895,289.051 340.218 C 287.843 340.786,285.862 342.087,284.200 343.403 C 283.760 343.751,283.031 344.253,282.581 344.518 C 279.966 346.055,278.985 346.693,277.992 347.500 C 277.383 347.995,276.718 348.400,276.514 348.400 C 276.311 348.400,275.539 348.940,274.800 349.600 C 274.061 350.260,273.240 350.800,272.977 350.800 C 272.713 350.800,272.251 351.098,271.949 351.462 C 271.647 351.826,270.815 352.368,270.100 352.667 C 269.385 352.966,268.800 353.360,268.800 353.542 C 268.800 353.725,268.125 354.217,267.300 354.637 C 266.475 355.057,265.565 355.715,265.277 356.100 C 264.990 356.485,264.520 356.800,264.232 356.800 C 263.945 356.800,263.031 357.340,262.200 358.000 C 261.369 358.660,260.451 359.200,260.159 359.200 C 259.867 359.200,259.435 359.560,259.200 360.000 C 258.965 360.440,258.533 360.800,258.241 360.800 C 257.949 360.800,257.031 361.340,256.200 362.000 C 255.369 362.660,254.452 363.200,254.161 363.200 C 253.869 363.200,253.274 363.584,252.837 364.052 C 252.400 364.521,251.709 365.106,251.302 365.352 C 250.895 365.599,249.962 366.160,249.230 366.600 C 248.498 367.040,247.427 367.780,246.850 368.245 C 246.272 368.710,245.395 369.217,244.900 369.372 C 244.405 369.527,244.000 369.832,244.000 370.049 C 244.000 370.267,243.190 370.803,242.200 371.241 C 241.210 371.679,240.400 372.218,240.400 372.439 C 240.400 372.660,239.770 373.104,239.000 373.426 C 238.230 373.748,237.600 374.160,237.600 374.342 C 237.600 374.525,236.925 375.017,236.100 375.437 C 235.275 375.857,234.365 376.515,234.077 376.900 C 233.790 377.285,233.327 377.600,233.049 377.600 C 232.770 377.600,231.835 378.135,230.971 378.789 C 230.107 379.443,229.085 379.983,228.700 379.989 C 228.315 379.995,228.000 380.178,228.000 380.395 C 228.000 380.765,226.438 381.925,223.418 383.800 C 222.710 384.240,221.818 384.915,221.436 385.300 C 221.055 385.685,220.508 386.000,220.220 386.000 C 219.933 386.000,219.451 386.299,219.149 386.665 C 218.847 387.031,217.854 387.661,216.943 388.065 C 216.031 388.469,215.182 389.070,215.055 389.400 C 214.929 389.730,214.576 390.000,214.271 390.000 C 213.966 390.000,213.209 390.470,212.589 391.045 C 211.969 391.620,210.953 392.267,210.331 392.484 C 209.709 392.701,209.200 393.050,209.200 393.260 C 209.200 393.469,208.570 393.904,207.800 394.226 C 207.030 394.548,206.400 394.968,206.400 395.161 C 206.400 395.354,205.590 395.893,204.600 396.358 C 203.610 396.823,202.800 397.361,202.800 397.554 C 202.800 397.746,202.260 398.127,201.600 398.400 C 197.649 400.037,195.384 400.000,300.200 400.000 L 400.000 400.000 400.000 200.000 L 400.000 0.000 299.800 0.000 C 219.905 0.000,199.601 0.101,199.604 0.500 " stroke="none" fill="#fbfcfb" fill-rule="evenodd"></path><path id="path2" d="M193.600 0.516 C 193.600 0.800,171.721 22.895,144.981 49.616 C 118.240 76.337,96.124 98.650,95.835 99.200 C 95.546 99.750,95.191 101.403,95.046 102.874 C 94.902 104.344,94.518 106.300,94.193 107.220 C 93.868 108.140,93.417 111.337,93.191 114.325 C 92.964 117.313,92.507 120.557,92.175 121.534 C 91.844 122.510,91.382 125.760,91.150 128.755 C 90.917 131.750,90.467 134.894,90.150 135.741 C 89.833 136.589,89.387 139.649,89.160 142.541 C 88.932 145.434,88.486 148.723,88.168 149.850 C 87.455 152.380,86.829 157.070,86.812 160.001 C 86.806 161.212,86.446 163.439,86.014 164.950 C 85.582 166.462,85.050 170.061,84.832 172.949 C 84.614 175.837,84.158 178.986,83.819 179.946 C 83.480 180.907,83.019 184.147,82.794 187.146 C 82.570 190.146,82.109 193.443,81.770 194.473 C 81.431 195.503,80.909 198.923,80.609 202.073 C 80.310 205.223,79.792 208.880,79.459 210.200 C 79.125 211.520,78.670 214.760,78.448 217.400 C 78.227 220.040,77.762 223.190,77.416 224.400 C 77.070 225.610,76.682 228.490,76.555 230.800 C 76.428 233.110,75.985 236.260,75.572 237.800 C 75.159 239.340,74.643 242.941,74.427 245.801 C 74.211 248.662,73.758 251.786,73.420 252.744 C 73.082 253.702,72.615 257.031,72.382 260.143 C 72.149 263.254,71.687 266.506,71.355 267.369 C 71.023 268.232,70.645 270.446,70.515 272.290 L 70.278 275.642 131.839 337.203 C 165.698 371.061,193.458 399.042,193.529 399.382 C 193.686 400.129,194.800 400.215,194.800 399.481 C 194.800 399.195,167.175 371.340,133.411 337.581 C 99.648 303.821,71.806 275.682,71.542 275.049 C 71.172 274.164,71.168 273.379,71.525 271.649 C 71.780 270.412,72.267 266.880,72.607 263.800 C 72.947 260.720,73.398 257.557,73.609 256.771 C 73.820 255.984,74.265 252.890,74.597 249.894 C 74.929 246.898,75.456 243.311,75.767 241.923 C 76.079 240.535,76.536 237.240,76.783 234.600 C 77.030 231.960,77.479 228.810,77.780 227.600 C 78.082 226.390,78.535 223.240,78.787 220.600 C 79.040 217.960,79.501 214.720,79.813 213.400 C 80.125 212.080,80.654 208.480,80.988 205.400 C 81.322 202.320,81.768 199.170,81.979 198.400 C 82.191 197.630,82.640 194.480,82.978 191.400 C 83.315 188.320,83.851 184.540,84.168 183.000 C 84.485 181.460,84.933 178.273,85.163 175.917 C 85.394 173.562,85.849 170.412,86.174 168.917 C 86.499 167.423,86.966 164.130,87.212 161.600 C 87.458 159.070,87.902 156.010,88.200 154.800 C 88.498 153.590,88.940 150.530,89.184 148.000 C 89.427 145.470,89.885 142.140,90.201 140.600 C 90.518 139.060,91.059 135.280,91.405 132.200 C 91.750 129.120,92.204 125.957,92.413 125.171 C 92.622 124.384,93.063 121.324,93.393 118.371 C 93.722 115.417,94.255 111.740,94.575 110.200 C 94.896 108.660,95.278 105.960,95.424 104.200 C 95.792 99.745,92.326 103.470,146.199 49.619 C 191.972 3.865,195.711 0.000,194.200 0.000 C 193.870 0.000,193.600 0.232,193.600 0.516 M198.400 0.400 C 198.400 0.619,226.030 28.427,259.800 62.195 C 318.172 120.564,321.200 123.661,321.200 125.001 C 321.200 126.337,319.297 128.314,284.800 162.804 C 260.830 186.770,248.400 199.470,248.400 199.997 C 248.400 200.524,265.046 217.442,297.406 249.804 C 343.302 295.701,346.396 298.881,346.151 299.906 C 345.777 301.471,345.789 301.458,343.072 303.188 C 341.712 304.053,340.060 305.143,339.400 305.608 C 338.740 306.074,337.582 306.848,336.826 307.328 C 336.070 307.807,335.074 308.470,334.612 308.800 C 334.150 309.130,333.176 309.760,332.447 310.200 C 331.718 310.640,330.665 311.347,330.107 311.771 C 329.549 312.196,326.012 314.575,322.246 317.060 C 318.481 319.544,315.178 321.767,314.907 321.998 C 314.635 322.230,313.735 322.815,312.907 323.299 C 312.078 323.783,311.220 324.322,311.000 324.497 C 309.937 325.340,307.655 326.848,306.373 327.555 C 305.589 327.987,304.711 328.625,304.424 328.971 C 304.137 329.317,303.713 329.600,303.483 329.600 C 303.252 329.600,302.722 329.909,302.304 330.287 C 301.887 330.664,300.938 331.339,300.196 331.787 C 298.454 332.837,284.910 341.861,283.600 342.844 C 283.050 343.257,282.077 343.885,281.438 344.240 C 280.798 344.595,279.909 345.226,279.462 345.643 C 279.015 346.059,278.472 346.400,278.256 346.400 C 278.040 346.400,277.522 346.709,277.104 347.087 C 276.687 347.464,275.747 348.139,275.014 348.587 C 273.357 349.599,268.938 352.513,267.600 353.477 C 267.050 353.873,263.540 356.215,259.800 358.682 C 256.060 361.149,252.460 363.547,251.800 364.011 C 251.140 364.475,249.982 365.248,249.226 365.728 C 248.470 366.207,247.474 366.870,247.012 367.200 C 246.550 367.530,245.571 368.160,244.836 368.600 C 244.101 369.040,243.001 369.805,242.392 370.300 C 241.783 370.795,241.145 371.200,240.974 371.200 C 240.803 371.200,240.322 371.509,239.904 371.887 C 239.487 372.264,238.540 372.939,237.800 373.387 C 236.676 374.066,230.264 378.302,227.400 380.257 C 226.960 380.558,225.520 381.514,224.200 382.382 C 222.880 383.251,221.260 384.339,220.600 384.800 C 219.940 385.261,218.253 386.395,216.852 387.319 C 208.677 392.711,206.662 394.060,205.600 394.850 C 205.050 395.260,204.077 395.885,203.438 396.240 C 202.798 396.595,201.912 397.224,201.467 397.638 C 201.023 398.052,200.331 398.495,199.929 398.622 C 199.053 398.900,198.950 400.000,199.800 400.000 C 200.130 400.000,200.400 399.752,200.400 399.449 C 200.400 399.145,200.940 398.673,201.600 398.400 C 202.260 398.127,202.800 397.746,202.800 397.554 C 202.800 397.361,203.610 396.823,204.600 396.358 C 205.590 395.893,206.400 395.354,206.400 395.161 C 206.400 394.968,207.030 394.548,207.800 394.226 C 208.570 393.904,209.200 393.469,209.200 393.260 C 209.200 393.050,209.709 392.701,210.331 392.484 C 210.953 392.267,211.969 391.620,212.589 391.045 C 213.209 390.470,213.966 390.000,214.271 390.000 C 214.576 390.000,214.929 389.730,215.055 389.400 C 215.182 389.070,216.031 388.469,216.943 388.065 C 217.854 387.661,218.847 387.031,219.149 386.665 C 219.451 386.299,219.933 386.000,220.220 386.000 C 220.508 386.000,221.055 385.685,221.436 385.300 C 221.818 384.915,222.710 384.240,223.418 383.800 C 226.438 381.925,228.000 380.765,228.000 380.395 C 228.000 380.178,228.315 379.995,228.700 379.989 C 229.085 379.983,230.107 379.443,230.971 378.789 C 231.835 378.135,232.770 377.600,233.049 377.600 C 233.327 377.600,233.790 377.285,234.077 376.900 C 234.365 376.515,235.275 375.857,236.100 375.437 C 236.925 375.017,237.600 374.525,237.600 374.342 C 237.600 374.160,238.230 373.748,239.000 373.426 C 239.770 373.104,240.400 372.660,240.400 372.439 C 240.400 372.218,241.210 371.679,242.200 371.241 C 243.190 370.803,244.000 370.267,244.000 370.049 C 244.000 369.832,244.405 369.527,244.900 369.372 C 245.395 369.217,246.272 368.710,246.850 368.245 C 247.427 367.780,248.498 367.040,249.230 366.600 C 249.962 366.160,250.895 365.599,251.302 365.352 C 251.709 365.106,252.400 364.521,252.837 364.052 C 253.274 363.584,253.869 363.200,254.161 363.200 C 254.452 363.200,255.369 362.660,256.200 362.000 C 257.031 361.340,257.949 360.800,258.241 360.800 C 258.533 360.800,258.965 360.440,259.200 360.000 C 259.435 359.560,259.867 359.200,260.159 359.200 C 260.451 359.200,261.369 358.660,262.200 358.000 C 263.031 357.340,263.945 356.800,264.232 356.800 C 264.520 356.800,264.990 356.485,265.277 356.100 C 265.565 355.715,266.475 355.057,267.300 354.637 C 268.125 354.217,268.800 353.725,268.800 353.542 C 268.800 353.360,269.385 352.966,270.100 352.667 C 270.815 352.368,271.647 351.826,271.949 351.462 C 272.251 351.098,272.713 350.800,272.977 350.800 C 273.240 350.800,274.061 350.260,274.800 349.600 C 275.539 348.940,276.311 348.400,276.514 348.400 C 276.718 348.400,277.383 347.995,277.992 347.500 C 278.985 346.693,279.966 346.055,282.581 344.518 C 283.031 344.253,283.760 343.751,284.200 343.403 C 285.862 342.087,287.843 340.786,289.051 340.218 C 289.740 339.895,290.409 339.353,290.539 339.015 C 290.669 338.677,291.026 338.400,291.332 338.400 C 291.639 338.400,292.569 337.860,293.400 337.200 C 294.231 336.540,295.123 336.000,295.383 336.000 C 295.643 336.000,296.247 335.550,296.725 335.000 C 297.203 334.450,297.840 334.000,298.139 334.000 C 298.438 334.000,299.121 333.595,299.657 333.100 C 300.192 332.605,301.073 331.971,301.615 331.691 C 302.638 331.163,304.815 329.694,306.200 328.597 C 306.640 328.249,307.369 327.747,307.819 327.482 C 310.434 325.945,311.415 325.307,312.408 324.500 C 313.017 324.005,313.699 323.600,313.924 323.600 C 314.148 323.600,314.752 323.240,315.266 322.801 C 316.845 321.450,318.937 320.036,320.300 319.398 C 321.015 319.063,321.600 318.628,321.600 318.430 C 321.600 318.233,322.410 317.679,323.400 317.200 C 324.390 316.721,325.200 316.167,325.200 315.970 C 325.200 315.772,325.830 315.348,326.600 315.026 C 327.370 314.704,328.000 314.286,328.000 314.097 C 328.000 313.909,328.733 313.431,329.628 313.035 C 330.524 312.640,331.353 312.066,331.471 311.758 C 331.589 311.451,331.912 311.200,332.188 311.200 C 332.464 311.200,333.328 310.705,334.107 310.100 C 334.886 309.495,336.119 308.640,336.848 308.200 C 337.576 307.760,338.556 307.130,339.026 306.800 C 339.496 306.470,340.403 305.856,341.040 305.435 C 341.678 305.015,342.560 304.428,343.000 304.131 C 343.440 303.834,344.475 303.141,345.300 302.591 C 346.639 301.697,346.800 301.408,346.800 299.899 C 346.800 298.129,346.737 298.038,343.042 294.494 C 341.654 293.163,339.429 290.923,334.715 286.115 C 333.173 284.542,316.460 267.833,314.000 265.405 C 313.230 264.645,311.340 262.784,309.800 261.269 C 308.260 259.754,306.337 257.814,305.526 256.958 C 304.715 256.101,301.925 253.280,299.326 250.689 C 296.727 248.097,294.420 245.793,294.200 245.567 C 293.980 245.341,292.090 243.468,290.000 241.403 C 287.910 239.339,285.532 236.964,284.715 236.125 C 283.898 235.286,279.218 230.592,274.315 225.693 C 265.149 216.536,264.562 215.953,259.800 211.269 C 258.260 209.754,256.339 207.814,255.532 206.958 C 254.725 206.101,252.970 204.342,251.632 203.050 C 250.294 201.757,249.200 200.385,249.200 200.000 C 249.200 199.615,250.294 198.243,251.632 196.950 C 252.970 195.658,254.725 193.899,255.532 193.042 C 256.837 191.658,258.839 189.662,263.885 184.715 C 265.745 182.892,282.642 165.982,284.707 163.878 C 285.528 163.041,287.910 160.666,290.000 158.600 C 292.090 156.534,293.980 154.659,294.200 154.433 C 294.420 154.207,296.727 151.903,299.326 149.311 C 301.925 146.720,304.715 143.899,305.526 143.042 C 306.873 141.619,309.999 138.509,313.885 134.725 C 324.343 124.543,324.344 125.399,313.875 115.275 C 313.036 114.464,310.661 112.090,308.597 110.000 C 306.532 107.910,304.659 106.020,304.433 105.800 C 304.207 105.580,301.903 103.273,299.311 100.674 C 296.720 98.075,293.899 95.285,293.042 94.474 C 291.657 93.163,289.613 91.111,284.715 86.115 C 283.173 84.542,266.460 67.833,264.000 65.405 C 263.230 64.645,261.340 62.784,259.800 61.269 C 258.260 59.754,256.337 57.814,255.526 56.958 C 254.715 56.101,251.925 53.280,249.326 50.689 C 246.727 48.097,244.420 45.793,244.200 45.567 C 243.980 45.341,242.090 43.468,240.000 41.403 C 237.910 39.339,235.532 36.964,234.715 36.125 C 233.898 35.286,229.218 30.592,224.315 25.693 C 215.149 16.536,214.562 15.953,209.800 11.269 C 208.260 9.754,206.332 7.814,205.517 6.958 C 204.701 6.101,203.037 4.410,201.820 3.200 C 200.603 1.990,199.606 0.775,199.604 0.500 C 199.602 0.225,199.330 0.000,199.000 0.000 C 198.670 0.000,198.400 0.180,198.400 0.400 " stroke="none" fill="#c4f4ec" fill-rule="evenodd"></path><path id="path3" d="M194.800 0.519 C 194.800 0.805,172.930 22.900,146.199 49.619 C 92.326 103.470,95.792 99.745,95.424 104.200 C 95.278 105.960,94.896 108.660,94.575 110.200 C 94.255 111.740,93.722 115.417,93.393 118.371 C 93.063 121.324,92.622 124.384,92.413 125.171 C 92.204 125.957,91.750 129.120,91.405 132.200 C 91.059 135.280,90.518 139.060,90.201 140.600 C 89.885 142.140,89.427 145.470,89.184 148.000 C 88.940 150.530,88.498 153.590,88.200 154.800 C 87.902 156.010,87.458 159.070,87.212 161.600 C 86.966 164.130,86.499 167.423,86.174 168.917 C 85.849 170.412,85.394 173.562,85.163 175.917 C 84.933 178.273,84.485 181.460,84.168 183.000 C 83.851 184.540,83.315 188.320,82.978 191.400 C 82.640 194.480,82.191 197.630,81.979 198.400 C 81.768 199.170,81.322 202.320,80.988 205.400 C 80.654 208.480,80.125 212.080,79.813 213.400 C 79.501 214.720,79.040 217.960,78.787 220.600 C 78.535 223.240,78.082 226.390,77.780 227.600 C 77.479 228.810,77.030 231.960,76.783 234.600 C 76.536 237.240,76.079 240.535,75.767 241.923 C 75.456 243.311,74.929 246.898,74.597 249.894 C 74.265 252.890,73.820 255.984,73.609 256.771 C 73.398 257.557,72.947 260.720,72.607 263.800 C 72.267 266.880,71.780 270.412,71.525 271.649 C 71.168 273.379,71.172 274.164,71.542 275.049 C 71.806 275.682,99.648 303.821,133.411 337.581 C 167.175 371.340,194.800 399.195,194.800 399.481 C 194.800 399.766,194.980 400.000,195.200 400.000 C 196.459 400.000,190.293 393.694,134.374 337.800 C 79.681 283.131,71.064 274.270,71.840 273.493 C 71.953 273.380,72.403 270.253,72.838 266.544 C 73.274 262.835,73.798 259.170,74.003 258.400 C 74.207 257.630,74.649 254.520,74.984 251.489 C 75.320 248.458,75.775 245.218,75.996 244.289 C 76.217 243.360,76.760 239.654,77.204 236.054 C 77.647 232.453,78.090 229.378,78.188 229.219 C 78.286 229.061,78.649 226.427,78.995 223.366 C 79.341 220.305,79.885 216.540,80.205 215.000 C 80.524 213.460,80.975 210.310,81.206 208.000 C 81.437 205.690,81.888 202.450,82.208 200.800 C 82.528 199.150,83.068 195.370,83.409 192.400 C 83.749 189.430,84.190 186.370,84.390 185.600 C 84.589 184.830,85.039 181.680,85.389 178.600 C 85.739 175.520,86.192 172.370,86.396 171.600 C 86.600 170.830,87.057 167.680,87.411 164.600 C 87.765 161.520,88.297 157.830,88.592 156.400 C 88.888 154.970,89.340 151.730,89.596 149.200 C 89.852 146.670,90.304 143.430,90.600 142.000 C 90.896 140.570,91.349 137.420,91.608 135.000 C 91.867 132.580,92.317 129.430,92.609 128.000 C 92.901 126.570,93.431 122.850,93.788 119.733 C 94.145 116.615,94.604 113.483,94.808 112.771 C 95.013 112.059,95.377 109.569,95.619 107.238 C 95.861 104.907,96.239 102.280,96.459 101.400 C 96.812 99.993,102.816 93.840,146.230 50.396 C 191.349 5.246,196.447 0.000,195.200 0.000 C 194.980 0.000,194.800 0.234,194.800 0.519 M197.600 0.420 C 197.600 0.651,225.320 28.560,259.200 62.439 C 307.008 110.246,320.800 124.253,320.800 125.002 C 320.800 125.748,312.542 134.223,284.400 162.361 C 251.721 195.034,248.000 198.882,248.000 200.000 C 248.000 201.120,252.898 206.142,296.800 250.039 C 323.858 277.094,345.597 299.138,345.594 299.517 C 345.582 300.857,346.041 300.522,324.800 314.670 C 302.818 329.312,293.569 335.479,281.667 343.431 C 276.755 346.714,271.503 350.210,269.997 351.200 C 268.491 352.190,265.400 354.244,263.129 355.765 C 260.858 357.285,253.721 362.055,247.270 366.365 C 240.818 370.674,235.148 374.465,234.670 374.788 C 234.191 375.111,228.517 378.891,222.060 383.188 C 215.603 387.485,210.023 391.205,209.660 391.456 C 208.443 392.296,200.745 397.392,199.566 398.137 C 198.445 398.845,197.970 400.000,198.800 400.000 C 199.020 400.000,199.200 399.742,199.200 399.427 C 199.200 399.112,199.528 398.750,199.929 398.622 C 200.331 398.495,201.023 398.052,201.467 397.638 C 201.912 397.224,202.798 396.595,203.438 396.240 C 204.077 395.885,205.050 395.260,205.600 394.850 C 206.662 394.060,208.677 392.711,216.852 387.319 C 218.253 386.395,219.940 385.261,220.600 384.800 C 221.260 384.339,222.880 383.251,224.200 382.382 C 225.520 381.514,226.960 380.558,227.400 380.257 C 230.264 378.302,236.676 374.066,237.800 373.387 C 238.540 372.939,239.487 372.264,239.904 371.887 C 240.322 371.509,240.803 371.200,240.974 371.200 C 241.145 371.200,241.783 370.795,242.392 370.300 C 243.001 369.805,244.101 369.040,244.836 368.600 C 245.571 368.160,246.550 367.530,247.012 367.200 C 247.474 366.870,248.470 366.207,249.226 365.728 C 249.982 365.248,251.140 364.475,251.800 364.011 C 252.460 363.547,256.060 361.149,259.800 358.682 C 263.540 356.215,267.050 353.873,267.600 353.477 C 268.938 352.513,273.357 349.599,275.014 348.587 C 275.747 348.139,276.687 347.464,277.104 347.087 C 277.522 346.709,278.040 346.400,278.256 346.400 C 278.472 346.400,279.015 346.059,279.462 345.643 C 279.909 345.226,280.798 344.595,281.438 344.240 C 282.077 343.885,283.050 343.257,283.600 342.844 C 284.910 341.861,298.454 332.837,300.196 331.787 C 300.938 331.339,301.887 330.664,302.304 330.287 C 302.722 329.909,303.252 329.600,303.483 329.600 C 303.713 329.600,304.137 329.317,304.424 328.971 C 304.711 328.625,305.589 327.987,306.373 327.555 C 307.655 326.848,309.937 325.340,311.000 324.497 C 311.220 324.322,312.078 323.783,312.907 323.299 C 313.735 322.815,314.635 322.230,314.907 321.998 C 315.178 321.767,318.481 319.544,322.246 317.060 C 326.012 314.575,329.549 312.196,330.107 311.771 C 330.665 311.347,331.718 310.640,332.447 310.200 C 333.176 309.760,334.150 309.130,334.612 308.800 C 335.074 308.470,336.070 307.807,336.826 307.328 C 337.582 306.848,338.740 306.074,339.400 305.608 C 340.060 305.143,341.712 304.053,343.072 303.188 C 345.789 301.458,345.777 301.471,346.151 299.906 C 346.396 298.881,343.302 295.701,297.406 249.804 C 265.046 217.442,248.400 200.524,248.400 199.997 C 248.400 199.470,260.830 186.770,284.800 162.804 C 319.297 128.314,321.200 126.337,321.200 125.001 C 321.200 123.661,318.172 120.564,259.800 62.195 C 226.030 28.427,198.400 0.619,198.400 0.400 C 198.400 0.180,198.220 0.000,198.000 0.000 C 197.780 0.000,197.600 0.189,197.600 0.420 " stroke="none" fill="#a0efe2" fill-rule="evenodd"></path><path id="path4" d="M195.600 0.496 C 195.600 0.769,173.384 23.224,146.230 50.396 C 102.816 93.840,96.812 99.993,96.459 101.400 C 96.239 102.280,95.861 104.907,95.619 107.238 C 95.377 109.569,95.013 112.059,94.808 112.771 C 94.604 113.483,94.145 116.615,93.788 119.733 C 93.431 122.850,92.901 126.570,92.609 128.000 C 92.317 129.430,91.867 132.580,91.608 135.000 C 91.349 137.420,90.896 140.570,90.600 142.000 C 90.304 143.430,89.852 146.670,89.596 149.200 C 89.340 151.730,88.888 154.970,88.592 156.400 C 88.297 157.830,87.765 161.520,87.411 164.600 C 87.057 167.680,86.600 170.830,86.396 171.600 C 86.192 172.370,85.739 175.520,85.389 178.600 C 85.039 181.680,84.589 184.830,84.390 185.600 C 84.190 186.370,83.749 189.430,83.409 192.400 C 83.068 195.370,82.528 199.150,82.208 200.800 C 81.888 202.450,81.437 205.690,81.206 208.000 C 80.975 210.310,80.524 213.460,80.205 215.000 C 79.885 216.540,79.341 220.305,78.995 223.366 C 78.649 226.427,78.286 229.061,78.188 229.219 C 78.090 229.378,77.647 232.453,77.204 236.054 C 76.760 239.654,76.217 243.360,75.996 244.289 C 75.775 245.218,75.320 248.458,74.984 251.489 C 74.649 254.520,74.207 257.630,74.003 258.400 C 73.798 259.170,73.274 262.835,72.838 266.544 C 72.403 270.253,71.953 273.380,71.840 273.493 C 71.064 274.270,79.681 283.131,134.374 337.800 C 168.048 371.459,195.600 399.224,195.600 399.500 C 195.600 399.805,196.146 400.000,197.000 400.000 C 197.937 400.000,198.400 399.814,198.400 399.437 C 198.400 399.127,198.925 398.542,199.566 398.137 C 200.745 397.392,208.443 392.296,209.660 391.456 C 210.023 391.205,215.603 387.485,222.060 383.188 C 228.517 378.891,234.191 375.111,234.670 374.788 C 235.148 374.465,240.818 370.674,247.270 366.365 C 253.721 362.055,260.858 357.285,263.129 355.765 C 265.400 354.244,268.491 352.190,269.997 351.200 C 271.503 350.210,276.755 346.714,281.667 343.431 C 293.569 335.479,302.818 329.312,324.800 314.670 C 346.041 300.522,345.582 300.857,345.594 299.517 C 345.597 299.138,323.858 277.094,296.800 250.039 C 252.898 206.142,248.000 201.120,248.000 200.000 C 248.000 198.882,251.721 195.034,284.400 162.361 C 312.542 134.223,320.800 125.748,320.800 125.002 C 320.800 124.253,307.008 110.246,259.200 62.439 C 225.320 28.560,197.600 0.651,197.600 0.420 C 197.600 0.189,197.150 0.000,196.600 0.000 C 196.050 0.000,195.600 0.223,195.600 0.496 M258.458 63.139 C 294.358 99.038,319.600 124.575,319.600 124.997 C 319.600 125.417,304.539 140.780,283.389 161.934 C 263.460 181.866,247.073 198.567,246.945 199.076 C 246.818 199.584,246.818 200.417,246.946 200.926 C 247.075 201.440,268.806 223.481,295.798 250.476 C 349.671 304.353,345.774 300.055,342.355 301.823 C 341.651 302.187,340.878 302.649,340.638 302.849 C 339.791 303.554,337.385 305.177,336.000 305.976 C 335.230 306.421,333.880 307.321,333.000 307.978 C 332.120 308.634,330.725 309.541,329.900 309.994 C 329.075 310.446,328.400 310.973,328.400 311.165 C 328.400 311.356,327.995 311.618,327.500 311.747 C 327.005 311.875,325.970 312.524,325.200 313.189 C 324.430 313.854,323.603 314.399,323.362 314.399 C 323.121 314.400,322.598 314.760,322.200 315.200 C 321.802 315.640,321.266 316.000,321.010 316.000 C 320.754 316.000,319.939 316.540,319.200 317.200 C 318.461 317.860,317.640 318.400,317.377 318.400 C 317.113 318.400,316.663 318.683,316.376 319.029 C 316.089 319.375,315.211 320.013,314.427 320.445 C 313.642 320.878,312.370 321.678,311.600 322.222 C 310.830 322.767,309.930 323.387,309.600 323.600 C 309.270 323.813,308.370 324.433,307.600 324.978 C 306.830 325.522,305.525 326.339,304.700 326.792 C 303.875 327.245,303.200 327.793,303.200 328.008 C 303.200 328.224,302.955 328.400,302.655 328.400 C 302.355 328.400,301.467 328.895,300.680 329.500 C 299.894 330.105,298.254 331.205,297.035 331.945 C 295.817 332.684,294.356 333.719,293.789 334.245 C 293.223 334.770,292.526 335.200,292.241 335.200 C 291.957 335.200,291.398 335.560,291.000 336.000 C 290.602 336.440,290.066 336.800,289.810 336.800 C 289.554 336.800,288.739 337.340,288.000 338.000 C 287.261 338.660,286.440 339.200,286.177 339.200 C 285.913 339.200,285.463 339.483,285.176 339.829 C 284.889 340.175,284.011 340.813,283.227 341.245 C 282.442 341.678,281.170 342.478,280.400 343.022 C 279.630 343.567,278.730 344.187,278.400 344.400 C 278.070 344.613,277.170 345.233,276.400 345.778 C 275.630 346.322,274.325 347.139,273.500 347.592 C 272.675 348.045,272.000 348.593,272.000 348.808 C 272.000 349.024,271.755 349.200,271.455 349.200 C 271.155 349.200,270.267 349.695,269.480 350.300 C 268.694 350.905,267.054 352.005,265.835 352.745 C 264.617 353.484,263.156 354.519,262.589 355.045 C 262.023 355.570,261.326 356.000,261.041 356.000 C 260.757 356.000,260.198 356.360,259.800 356.800 C 259.402 357.240,258.866 357.600,258.610 357.600 C 258.354 357.600,257.539 358.140,256.800 358.800 C 256.061 359.460,255.240 360.000,254.977 360.000 C 254.713 360.000,254.263 360.283,253.976 360.629 C 253.689 360.975,252.811 361.613,252.027 362.045 C 251.242 362.478,249.970 363.278,249.200 363.822 C 248.430 364.367,247.530 364.987,247.200 365.200 C 246.870 365.413,245.970 366.033,245.200 366.578 C 244.430 367.122,243.125 367.939,242.300 368.392 C 241.475 368.845,240.800 369.373,240.800 369.565 C 240.800 369.756,240.395 370.020,239.900 370.152 C 239.405 370.283,238.550 370.757,238.000 371.206 C 237.450 371.655,235.830 372.763,234.400 373.669 C 232.970 374.576,231.478 375.651,231.084 376.059 C 230.691 376.466,230.134 376.800,229.846 376.800 C 229.559 376.800,228.998 377.160,228.600 377.600 C 228.202 378.040,227.679 378.404,227.438 378.409 C 227.197 378.414,226.550 378.779,226.000 379.221 C 225.450 379.663,224.100 380.618,223.000 381.343 C 221.900 382.068,220.482 383.007,219.850 383.430 C 219.217 383.854,218.227 384.510,217.650 384.890 C 216.073 385.925,215.532 386.294,214.000 387.378 C 213.230 387.922,211.925 388.739,211.100 389.192 C 210.275 389.645,209.600 390.173,209.600 390.365 C 209.600 390.556,209.191 390.816,208.692 390.941 C 208.193 391.066,207.374 391.551,206.872 392.018 C 206.371 392.486,205.564 393.085,205.080 393.349 C 202.802 394.595,200.000 396.503,200.000 396.807 C 200.000 396.994,199.595 397.270,199.100 397.420 C 198.605 397.571,197.905 397.953,197.544 398.269 C 196.954 398.786,190.691 392.649,135.144 337.122 L 73.400 275.400 73.455 271.000 C 73.492 268.114,73.792 265.430,74.330 263.200 C 74.780 261.330,75.340 257.550,75.573 254.800 C 75.807 252.050,76.246 248.990,76.548 248.000 C 76.851 247.010,77.318 243.682,77.586 240.605 C 77.854 237.528,78.211 234.738,78.380 234.405 C 78.885 233.411,79.206 231.267,79.609 226.200 C 79.819 223.560,80.266 220.506,80.603 219.412 C 80.939 218.319,81.395 215.259,81.615 212.612 C 81.836 209.966,82.361 206.270,82.783 204.400 C 83.205 202.530,83.729 198.839,83.947 196.199 C 84.166 193.558,84.542 190.878,84.784 190.243 C 85.025 189.609,85.495 186.370,85.828 183.047 C 86.161 179.724,86.689 176.104,87.000 175.003 C 87.312 173.901,87.753 170.660,87.980 167.800 C 88.208 164.940,88.657 161.743,88.979 160.696 C 89.301 159.648,89.763 156.498,90.006 153.696 C 90.248 150.893,90.614 148.060,90.818 147.400 C 91.493 145.218,91.984 142.007,92.193 138.414 C 92.306 136.464,92.743 133.368,93.165 131.534 C 93.586 129.700,94.048 126.490,94.191 124.400 C 94.334 122.310,94.788 119.160,95.200 117.400 C 95.612 115.640,96.138 111.917,96.370 109.126 C 97.119 100.116,91.682 106.357,146.828 51.208 C 192.412 5.622,196.059 2.043,196.958 2.012 C 197.154 2.005,224.829 29.512,258.458 63.139 " stroke="none" fill="#66e4d1" fill-rule="evenodd"></path></g></svg>